<svg fill="#000000" height="800px" width="800px" version="1.1" id="Layer_1" xmlns="http://www.w3.org/2000/svg" xmlns:xlink="http://www.w3.org/1999/xlink" 
	 viewBox="0 0 512 512" xml:space="preserve">
<g>
	<g>
		<path d="M414.626,90.024c-13.256-8.541-19.901-15.187-28.44-28.44c-1.442-2.239-3.924-3.592-6.588-3.592
			c-2.663,0-5.145,1.353-6.588,3.592c-8.54,13.255-15.185,19.9-28.44,28.441c-2.241,1.442-3.594,3.924-3.594,6.587
			s1.352,5.145,3.592,6.587c13.256,8.542,19.9,15.188,28.441,28.441c1.443,2.239,3.925,3.592,6.588,3.592s5.145-1.353,6.588-3.592
			c8.539-13.253,15.184-19.898,28.441-28.441c2.239-1.442,3.592-3.924,3.592-6.587S416.865,91.467,414.626,90.024z M379.596,113.715
			c-5.133-6.692-10.411-11.97-17.104-17.103c6.693-5.133,11.971-10.41,17.104-17.103c5.131,6.69,10.411,11.97,17.103,17.103
			C390.007,101.745,384.727,107.024,379.596,113.715z"/>
	</g>
</g>
<g>
	<g>
		<path d="M344.258,24.914L321.639,2.295c-3.06-3.06-8.023-3.06-11.082,0l-22.619,22.619c-1.47,1.469-2.296,3.464-2.296,5.541
			c0,2.078,0.825,4.072,2.296,5.542l22.62,22.62c1.531,1.53,3.536,2.295,5.541,2.295c2.005,0,4.011-0.765,5.541-2.296l22.618-22.619
			c1.47-1.47,2.296-3.464,2.296-5.542C346.554,28.377,345.728,26.383,344.258,24.914z M316.1,41.992l-11.538-11.537l11.536-11.537
			l11.538,11.537L316.1,41.992z"/>
	</g>
</g>
<g>
	<g>
		<path d="M188.706,53.342l-22.62-22.619c-3.061-3.062-8.023-3.06-11.082,0l-22.619,22.619c-1.47,1.469-2.296,3.463-2.296,5.541
			c0,2.078,0.827,4.072,2.296,5.542l22.621,22.619c1.531,1.53,3.536,2.295,5.541,2.295c2.005,0,4.011-0.765,5.541-2.296
			l22.618-22.619c1.47-1.47,2.296-3.463,2.296-5.541C191.002,56.805,190.176,54.811,188.706,53.342z M160.546,70.419l-11.538-11.537
			l11.537-11.537l11.538,11.537L160.546,70.419z"/>
	</g>
</g>
<g>
	<g>
		<path d="M256,218.331c-69.442,0-125.936,56.495-125.936,125.935c0,34.108,13.462,66.065,37.907,89.983
			c3.095,3.027,8.056,2.973,11.083-0.121c3.026-3.093,2.973-8.055-0.121-11.081c-21.406-20.946-33.195-48.924-33.195-78.781
			c0-60.798,49.463-110.262,110.263-110.262s110.263,49.463,110.263,110.262c0,60.799-49.463,110.264-110.263,110.264
			c-18.776,0-37.325-4.825-53.643-13.953c-3.777-2.114-8.552-0.763-10.665,3.013c-2.114,3.777-0.764,8.552,3.013,10.665
			c18.65,10.433,39.846,15.947,61.295,15.947c69.442,0,125.936-56.496,125.936-125.937C381.936,274.826,325.442,218.331,256,218.331
			z"/>
	</g>
</g>
<g>
	<g>
		<path d="M373.287,224.359c-3.094-3.027-8.054-2.972-11.082,0.122c-3.026,3.094-2.972,8.056,0.122,11.082
			c29.491,28.85,45.733,67.455,45.733,108.703c-0.001,83.846-68.214,152.06-152.06,152.06s-152.059-68.214-152.059-152.06
			c0-75.219,54.905-137.842,126.741-149.932l11.076,13.229c3.54,4.227,8.731,6.65,14.243,6.65c5.514,0,10.706-2.424,14.244-6.651
			l11.084-13.239c20.306,3.407,39.721,10.9,57.143,22.17c3.632,2.35,8.486,1.309,10.837-2.324c2.351-3.634,1.31-8.487-2.324-10.837
			c-16.673-10.785-35.002-18.421-54.185-22.712l35.823-42.79c5.533-6.61,5.814-16.062,0.68-22.987l-21.613-29.16
			c-3.488-4.705-9.068-7.515-14.924-7.515h-73.533c-5.857,0-11.436,2.81-14.924,7.515l-21.612,29.16
			c-5.134,6.925-4.852,16.378,0.681,22.987l35.825,42.793c-74.846,16.819-130.937,83.794-130.937,163.641
			C88.268,436.755,163.512,512,256,512s167.732-75.245,167.732-167.733C423.732,298.766,405.817,256.183,373.287,224.359z
			 M292.766,93.843c0.915,0,1.787,0.439,2.332,1.174l16.972,22.9h-18.618h-5.226l-10.094-24.074H292.766z M288.898,133.592h22.831
			l-34.965,41.766L288.898,133.592z M250.861,93.843h10.277l10.094,24.074h-30.464L250.861,93.843z M272.577,133.592L256,190.647
			l-16.578-57.055H272.577z M195.397,127.769c-0.865-1.032-0.909-2.509-0.108-3.591l21.612-29.159
			c0.545-0.736,1.417-1.176,2.332-1.176h14.633l-10.095,24.074h-4.343h-0.882l0.015,0.05c-3.919,0.433-6.969,3.751-6.969,7.787
			c0,4.328,3.509,7.837,7.837,7.837h3.673l12.135,41.766L195.397,127.769z"/>
	</g>
</g>
</svg>