<svg fill="#000000" version="1.1" id="Layer_1" xmlns="http://www.w3.org/2000/svg" xmlns:xlink="http://www.w3.org/1999/xlink" 
	 viewBox="0 0 512 512" xml:space="preserve">
<g>
	<g>
		<path d="M512,132.635c0-27.328-27.862-52.128-78.454-69.83C386.009,46.171,322.956,37.01,256,37.01
			c-66.956,0-130.009,9.161-177.547,25.794C27.862,80.507,0,105.307,0,132.635c0,2.107,0.185,4.142,0.559,6.168H0v240.563
			c0,27.328,27.862,52.128,78.453,69.83c47.537,16.634,110.591,25.794,177.546,25.794s130.009-9.161,177.546-25.794
			c50.592-17.703,78.454-42.502,78.454-69.83V268.336h-18.537v111.029c0,18.301-24.687,37.864-66.039,52.334
			c-45.62,15.963-106.5,24.754-171.424,24.754c-64.924,0-125.804-8.791-171.424-24.754c-41.351-14.47-66.038-34.034-66.038-52.334
			v-209.67c9.092,8.544,21.477,16.443,36.977,23.569v167.598h18.537V200.865c3.364,1.234,6.823,2.443,10.403,3.617
			c46.736,15.334,107.659,23.778,171.545,23.778s124.809-8.444,171.545-23.778c3.58-1.175,7.039-2.383,10.403-3.617v159.997h18.537
			V193.264c15.502-7.126,27.887-15.025,36.978-23.57v61.633h18.537v-92.524h-0.559C511.813,136.776,512,134.742,512,132.635z
			 M492.999,136.431l-0.105,0.475c-3.527,18.078-29.451,36.289-71.127,49.963C376.846,201.606,317.976,209.723,256,209.723
			s-120.847-8.117-165.767-22.855c-41.677-13.673-67.601-31.884-71.128-49.963L19,136.431c-0.315-1.263-0.463-2.47-0.463-3.796
			c0-18.301,24.687-37.864,66.038-52.334c45.62-15.963,106.5-24.754,171.424-24.754s125.804,8.791,171.424,24.754
			c41.352,14.47,66.039,34.033,66.039,52.334C493.462,133.96,493.315,135.167,492.999,136.431z"/>
	</g>
</g>
<g>
	<g>
		<path d="M350.143,97.539C324.89,90.328,291.456,86.357,256,86.357s-68.891,3.971-94.144,11.181
			c-29.633,8.461-44.659,20.269-44.659,35.096c0,14.827,15.026,26.636,44.659,35.096c25.253,7.211,58.687,11.181,94.144,11.181
			c35.456,0,68.89-3.971,94.143-11.181c29.633-8.461,44.659-20.269,44.659-35.096C394.802,117.808,379.776,105.999,350.143,97.539z
			 M345.054,149.907c-23.644,6.751-55.272,10.47-89.054,10.47c-33.783,0-65.41-3.718-89.054-10.47
			c-25.477-7.275-31.211-15.104-31.211-17.273c0-2.169,5.734-9.998,31.211-17.273c23.644-6.751,55.272-10.47,89.054-10.47
			c33.783,0,65.41,3.719,89.054,10.47c25.477,7.275,31.211,15.104,31.211,17.273C376.265,134.804,370.531,142.632,345.054,149.907z"
			/>
	</g>
</g>
<g>
	<g>
		<rect x="416.373" y="123.369" width="37.01" height="18.537"/>
	</g>
</g>
<g>
	<g>
		<rect x="58.613" y="123.369" width="37.009" height="18.537"/>
	</g>
</g>
<g>
	<g>
		<path d="M111.029,265.237v117.229h289.942V265.237H111.029z M382.434,363.929H129.566v-80.155h252.868V363.929z"/>
	</g>
</g>
<g>
	<g>
		<rect x="163.469" y="314.582" width="111.023" height="18.537"/>
	</g>
</g>
<g>
	<g>
		<rect x="299.171" y="314.582" width="49.346" height="18.537"/>
	</g>
</g>
</svg>