<svg
  fill="#000000"
  height="800px"
  width="800px"
  version="1.1"
  id="Capa_1"
  xmlns="http://www.w3.org/2000/svg"
  xmlns:xlink="http://www.w3.org/1999/xlink"
  viewBox="0 0 35.451 35.451"
  xml:space="preserve"
>
  <g>
    <path
      d="M14.25,18.455l2.819-0.018V8.496c-0.515-0.212-0.879-0.717-0.879-1.31c0-0.781,0.634-1.416,1.417-1.416
		c0.782,0,1.416,0.635,1.416,1.416c0.001,0.57-0.339,1.053-0.824,1.279v9.964l2.9-0.02l2.369-7.835L17.667,0v0.023l-5.685,10.502
		L14.25,18.455z"
    />
    <path
      d="M20.795,19.66h-6.278c0,0-1.442,3.116-1.441,4.673c-0.002,1.559,0,11.116,0,11.116h4.532l1.353,0.002V23.402h1.841
		l0.001,12.049h1.336c0,0,0.001-9.63,0-11.117C22.139,22.848,20.795,19.66,20.795,19.66z"
    />
    <g></g>
    <g></g>
    <g></g>
    <g></g>
    <g></g>
    <g></g>
    <g></g>
    <g></g>
    <g></g>
    <g></g>
    <g></g>
    <g></g>
    <g></g>
    <g></g>
    <g></g>
  </g>
</svg>
